<?xml version="1.0" encoding="UTF-8"?>
<svg width="133px" height="20px" viewBox="0 0 133 20" version="1.1" xmlns="http://www.w3.org/2000/svg" xmlns:xlink="http://www.w3.org/1999/xlink">
    <!-- Generator: Sketch 58 (84663) - https://sketch.com -->
    <title>logo_footer white EN</title>
    <desc>Created with Sketch.</desc>
    <defs>
        <polygon id="path-1" points="0.522389189 0.250637838 7.86762162 0.250637838 7.86762162 9.72958378 0.522389189 9.72958378"></polygon>
        <polygon id="path-3" points="7.90540541e-05 0.222315439 14.6563581 0.222315439 14.6563581 19.297218 7.90540541e-05 19.297218"></polygon>
    </defs>
    <g id="Navigations-+-Footers-(modified-logo)" stroke="none" stroke-width="1" fill="none" fill-rule="evenodd">
        <g id="Mobile_Secure-Footer-EN" transform="translate(-19.000000, -543.000000)">
            <g id="FOOTER/-Secured-Mobile-EN">
                <g id="Legal-Footer/-Mobile-EN">
                    <g transform="translate(0.000000, 534.000000)">
                        <g id="logo_footer-white-EN" transform="translate(19.000000, 9.000000)">
                            <g id="logo_rbcrewardsBW-Copy" transform="translate(24.405405, 2.270270)">
                                <path d="M5.66846757,3.2991 L3.94873784,3.2991 L3.94873784,7.66823514 L5.58276486,7.66823514 C7.23438649,7.66823514 7.81898108,6.32650541 7.81898108,5.39796486 C7.81898108,4.27928919 7.09646757,3.2991 5.66846757,3.2991 L5.66846757,3.2991 Z M6.09868378,2.02547838 C7.25141351,2.02547838 8.28325135,2.26669459 9.02279189,2.79964054 C9.7629,3.35018108 10.2447649,4.17599189 10.2447649,5.34574865 C10.2447649,6.20618108 9.91784595,6.92869459 9.43598108,7.47923514 C9.02279189,7.97812703 8.47225135,8.32207297 7.92227838,8.51164054 L11.6721973,13.8785595 L8.78214324,13.8785595 L5.44484595,8.95831622 L3.94873784,8.95831622 L3.94873784,13.8785595 L1.59106216,13.8785595 L1.59106216,4.40018108 C1.59106216,3.62545135 1.59106216,3.00623514 1.28173784,2.61120811 C1.11033243,2.38758649 0.783413514,2.19801892 0.490548649,2.18099189 L0.490548649,2.02547838 L6.09868378,2.02547838 Z" id="Fill-1" fill="#FFFFFF"></path>
                                <path d="M17.1933243,12.6226459 C18.8449459,12.6226459 19.7224054,11.5732135 19.7224054,10.1974297 C19.7224054,9.01007838 18.7932973,8.20186216 17.5032162,8.20186216 L15.3873243,8.20186216 L15.3873243,12.6226459 L17.1933243,12.6226459 Z M17.1933243,6.94583514 C18.312,6.94583514 19.1712973,6.18926757 19.1712973,5.01951081 C19.1712973,4.03875405 18.3977027,3.28161892 17.073,3.28161892 L15.3873243,3.28161892 L15.3873243,6.94583514 L17.1933243,6.94583514 Z M17.7955135,2.02559189 C20.4102973,2.02559189 21.5976486,3.41953784 21.5976486,4.84697027 C21.5976486,6.13761892 20.7888649,6.94583514 19.7224054,7.35902432 C21.3734595,7.87494324 22.2168649,8.80348378 22.2168649,10.3523757 C22.2168649,11.2298351 21.8212703,12.1237541 21.0641351,12.7951865 C20.3245946,13.4484568 19.1378108,13.878673 17.8988108,13.878673 L13.0302162,13.878673 L13.0302162,4.40029459 C13.0302162,3.62556486 13.0302162,3.00634865 12.7208919,2.61075405 C12.5489189,2.38713243 12.222,2.19813243 11.9297027,2.18053784 L11.9297027,2.02559189 L17.7955135,2.02559189 Z" id="Fill-3" fill="#FFFFFF"></path>
                                <path d="M32.9333351,4.33110811 C32.3827946,3.53935135 31.2993081,2.90310811 30.1119568,2.90310811 C28.5290108,2.90310811 26.4477405,4.07286486 26.4477405,7.94367568 C26.4477405,11.8485405 29.0625243,13.0012703 30.7657946,13.0012703 C32.4690649,13.0012703 33.5179297,11.8485405 33.5179297,11.8485405 L33.5179297,13.4138919 C33.5179297,13.4138919 32.4690649,14.171027 30.1119568,14.171027 C27.0329027,14.171027 23.9356865,12.4507297 23.9356865,7.94367568 C23.9356865,3.84924324 26.7235784,1.69872973 30.1119568,1.69872973 C31.8146595,1.69872973 33.2426595,2.28389189 33.7415514,2.52454054 L32.9333351,4.33110811 Z" id="Fill-5" fill="#FFFFFF"></path>
                                <path d="M44.4748216,3.2991 L42.7550919,3.2991 L42.7550919,7.66823514 L44.3891189,7.66823514 C46.0407405,7.66823514 46.6253351,6.32650541 46.6253351,5.39796486 C46.6253351,4.27928919 45.9033892,3.2991 44.4748216,3.2991 L44.4748216,3.2991 Z M44.9056054,2.02547838 C46.0577676,2.02547838 47.0896054,2.26669459 47.8297135,2.79964054 C48.5698216,3.35018108 49.0511189,4.17599189 49.0511189,5.34574865 C49.0511189,6.20618108 48.7242,6.92869459 48.2429027,7.47923514 C47.8297135,7.97812703 47.279173,8.32207297 46.7292,8.51164054 L50.4791189,13.8785595 L47.5884973,13.8785595 L44.2512,8.95831622 L42.7550919,8.95831622 L42.7550919,13.8785595 L40.3979838,13.8785595 L40.3979838,4.40018108 C40.3979838,3.62545135 40.3979838,3.00623514 40.0880919,2.61120811 C39.9166865,2.38758649 39.5897676,2.19801892 39.2969027,2.18099189 L39.2969027,2.02547838 L44.9056054,2.02547838 Z" id="Fill-7" fill="#FFFFFF"></path>
                                <path d="M56.7916622,8.21871892 C56.8086892,6.77425946 56.0691486,6.01712432 55.1922568,6.01712432 C54.1422568,6.01712432 53.2307432,6.91161081 53.0411757,8.39125946 L56.7916622,8.21871892 Z M55.1922568,14.2054216 C52.5252568,14.2054216 50.6329865,12.1582054 50.6329865,9.47474595 C50.6329865,6.75666486 52.5769054,4.72647568 55.1570676,4.72647568 C57.273527,4.72647568 59.1657973,6.05174595 59.1657973,8.61488108 C59.1657973,8.78628649 59.1482027,9.18244865 59.1141486,9.49234054 L52.9214189,9.61266486 C53.0928243,11.5049351 54.1768784,12.8296378 55.6213378,12.8296378 C56.4477162,12.8296378 57.3081486,12.5203135 58.3059324,11.9175568 L58.9251486,12.9840162 C57.5658243,13.9301514 56.378473,14.2054216 55.1922568,14.2054216 L55.1922568,14.2054216 Z" id="Fill-9" fill="#FFFFFF"></path>
                                <path d="M69.1944892,11.3157081 C69.7966784,9.69814054 70.6559757,6.79162703 70.7774351,4.95043784 L72.9097865,4.95043784 L69.6933811,13.8788432 L67.8345973,13.8788432 L66.4241919,8.37343784 L64.9275162,13.8788432 L63.0704351,13.8788432 L59.9385973,4.95043784 L62.2957054,4.95043784 L64.3599486,11.3157081 L65.8918135,4.95043784 L67.4049486,4.95043784 L69.1944892,11.3157081 Z" id="Fill-11" fill="#FFFFFF"></path>
                                <path d="M77.8465459,6.05157568 C76.6257081,6.05157568 75.4724108,7.11746757 75.4724108,9.42292703 C75.4724108,10.7816838 75.7998973,11.7970622 76.4701946,12.3651973 C76.7795189,12.6574946 77.1927081,12.8635216 77.6916,12.8635216 C78.2937892,12.8635216 78.9470595,12.5547649 79.2228973,12.2959541 L79.2228973,6.44717027 C78.7926811,6.1719 78.2591676,6.05157568 77.8465459,6.05157568 L77.8465459,6.05157568 Z M81.4250595,13.8789 L80.9261676,13.8789 C80.5992486,13.706927 80.3580324,13.6206568 80.0487081,13.6206568 C79.8069243,13.6206568 79.5322216,13.7239541 79.2228973,13.8442784 C78.7574919,14.0162514 78.1734649,14.2058189 77.4515189,14.2058189 C75.7817351,14.2058189 74.474627,13.3800081 73.7867351,12.1410081 C73.3729784,11.383873 73.2010054,10.4553324 73.2010054,9.52679189 C73.2010054,7.66857568 73.9416811,6.41254865 75.0427622,5.55211622 C75.8163568,4.96752162 76.8311676,4.69225135 77.7773027,4.69225135 C78.5684919,4.69225135 79.4283568,4.91587297 79.9107892,5.08841351 L81.4250595,4.7439 L81.4250595,13.8789 Z" id="Fill-13" fill="#FFFFFF"></path>
                                <path d="M89.3714027,6.6531973 C88.7005378,6.3609 88.1840514,6.20595405 87.7021865,6.20595405 C87.2214568,6.20595405 86.7742135,6.34387297 86.1890514,6.6531973 L86.1890514,13.8783324 L84.0039162,13.8783324 L84.0039162,4.95049459 L84.5028081,4.95049459 C84.8473216,5.13949459 85.1225919,5.20873784 85.3632405,5.20873784 C85.6549703,5.20873784 85.9308081,5.13949459 86.2917811,5.01917027 C86.8945378,4.83017027 87.4961595,4.69225135 88.1324027,4.69225135 C88.6829432,4.69225135 89.2851324,4.77795405 90.0252405,5.0361973 L89.3714027,6.6531973 Z" id="Fill-15" fill="#FFFFFF"></path>
                                <path d="M96.682127,6.24085946 C96.3552081,6.15458919 95.9766405,6.05185946 95.5640189,6.05185946 C94.1360189,6.05185946 92.7766946,7.08312973 92.7766946,9.45726486 C92.7766946,10.9715351 93.4305324,12.8638054 95.1684243,12.8638054 C95.7876405,12.8638054 96.4068568,12.5885351 96.682127,12.3819405 L96.682127,6.24085946 Z M98.8842892,13.8786162 L98.4018568,13.8786162 C98.0584784,13.7066432 97.7826405,13.6209405 97.4733162,13.6209405 C97.2326676,13.6209405 96.9568297,13.7242378 96.6299108,13.8439946 C96.1832351,14.0159676 95.5640189,14.2055351 94.8415054,14.2055351 C93.1382351,14.2055351 91.7965054,13.3797243 91.1086135,12.1412919 C90.6783973,11.3841568 90.5064243,10.4556162 90.5064243,9.52650811 C90.5064243,7.75456216 91.1937486,6.48150811 92.3294514,5.60404865 C93.0519649,5.07053514 94.0497486,4.70956216 95.1332351,4.70956216 C95.632127,4.70956216 96.1996946,4.77823784 96.682127,4.96780541 L96.682127,0.494805405 L98.8842892,0.494805405 L98.8842892,13.8786162 Z" id="Fill-17" fill="#FFFFFF"></path>
                                <g id="Group-21" transform="translate(100.459459, 4.476235)">
                                    <mask id="mask-2" fill="white">
                                        <use xlink:href="#path-1"></use>
                                    </mask>
                                    <g id="Clip-20"></g>
                                    <path d="M6.61182162,2.90004324 C5.92392973,2.17696216 5.04647027,1.54071892 4.22065946,1.54071892 C3.43003784,1.54071892 2.8619027,1.93631351 2.8619027,2.52147568 C2.8619027,3.27804324 3.82563243,3.53628649 4.82341622,3.93188108 C6.21622703,4.48298919 7.86784865,5.18790811 7.86784865,6.83952973 C7.86784865,8.66312432 6.07944324,9.72958378 4.23768649,9.72958378 C2.98165946,9.72958378 1.48555135,9.21366486 0.522389189,8.59444865 L1.41687568,6.99390811 C2.15584865,7.69996216 3.29155135,8.43893514 4.23768649,8.43893514 C5.11514595,8.43893514 5.71733514,8.04390811 5.71733514,7.42412432 C5.71733514,6.68401622 4.65087568,6.34063784 3.6354973,5.89339459 C2.31079459,5.30823243 0.711389189,4.63736757 0.711389189,3.00277297 C0.711389189,1.28247568 2.50092973,0.250637838 4.30692973,0.250637838 C5.59701081,0.250637838 6.73271351,0.766556757 7.54092973,1.19677297 L6.61182162,2.90004324 Z" id="Fill-19" fill="#FFFFFF" mask="url(#mask-2)"></path>
                                </g>
                            </g>
                            <g id="Group-14" transform="translate(0.000000, 0.445946)">
                                <g id="Group-3" transform="translate(0.000000, 0.121622)">
                                    <mask id="mask-4" fill="white">
                                        <use xlink:href="#path-3"></use>
                                    </mask>
                                    <g id="Clip-2"></g>
                                    <path d="M14.6564372,0.222236135 L14.2569507,0.222236135 L0.399565541,0.222236135 L7.90540541e-05,0.222236135 L7.90540541e-05,0.622985487 L7.90540541e-05,16.6582465 C7.90540541e-05,17.4108411 0.331315541,17.9205012 0.984829054,18.1726878 C2.85946419,18.8977904 5.11250473,19.297218 7.32812635,19.297218 C9.544275,19.297218 11.797052,18.8977904 13.6719507,18.1724235 C14.3252007,17.9205012 14.6564372,17.4108411 14.6564372,16.6582465 L14.6564372,0.622985487 L14.6564372,0.222236135 Z M14.2569507,0.622985487 L14.2569507,16.6582465 C14.2569507,17.2622783 14.0100385,17.6125375 13.5280723,17.7986375 C11.6555453,18.522947 9.43781554,18.8964686 7.32812635,18.8964686 C5.21896419,18.8964686 3.00123446,18.522947 1.12818041,17.7986375 C0.646477703,17.6125375 0.399565541,17.2622783 0.399565541,16.6582465 L0.399565541,0.622985487 L14.2569507,0.622985487 L14.2569507,0.622985487 Z" id="Fill-1" fill="#FEFEFE" mask="url(#mask-4)"></path>
                                </g>
                                <path d="M4.04885729,10.1544907 C2.1408892,8.96907793 1.50996749,8.44367713 1.45675722,7.6660109 C1.44784516,7.50792109 1.48349341,7.24156845 1.55033389,7.05113023 L1.37025777,6.93243243 C1.22609203,7.16043655 1.13513514,7.46096372 1.13513514,7.73670783 C1.13461231,8.18619422 1.27956442,8.52637428 1.45675722,8.79820528 C1.72516762,9.20908226 2.00720824,9.46708693 2.70156288,9.98544412 C3.45070051,10.5450194 3.96130936,11.1977269 4.25540748,11.8804349 L4.36182801,11.8804349 L4.36182801,11.1053774 C5.37360941,11.6766921 6.2658643,12.2148757 6.70439028,13.1756757 L6.81081081,13.1756757 C6.6388604,12.1796577 6.07320644,11.4119047 4.04885729,10.1544907" id="Fill-4" fill="#FEFEFE"></path>
                                <path d="M9.81218094,7.77342186 C9.38635546,7.96323538 9.09311593,8.22083945 8.83115173,8.59063022 L9.70124712,8.54543652 C9.73252244,8.16129011 9.78304411,7.9063445 9.81218094,7.77342186 L9.81218094,7.77342186 Z M12.9474648,10.8614805 C13.0351426,10.6503994 13.0912778,10.4470277 13.1067818,10.1899554 L11.8354534,10.1181771 C11.778249,10.4720172 11.6833538,10.7801319 11.5823105,11.032419 L12.9474648,10.8614805 Z M11.5718854,7.72450633 C11.6630382,7.96775475 11.731737,8.2040912 11.7819914,8.4313889 L12.5296586,8.39044873 C12.2727733,8.09642386 11.9445161,7.86567017 11.5718854,7.72450633 L11.5718854,7.72450633 Z M11.2321339,8.46169526 C11.1048941,8.02251888 10.9525272,7.71732851 10.8720667,7.57324037 C10.8207431,7.57031607 10.7691522,7.56898685 10.717294,7.56898685 C10.63122,7.56898685 10.5448788,7.5798865 10.4614779,7.58919109 C10.3374459,7.89597653 10.2369372,8.20648381 10.1548729,8.5212446 L11.2321339,8.46169526 Z M11.8560364,8.85993148 C11.8955983,9.17681904 11.8996079,9.47376821 11.8795597,9.74812053 L13.1025048,9.68378597 C13.0712295,9.40730689 12.9923729,9.14571514 12.8739544,8.9064544 L11.8560364,8.85993148 Z M11.4401014,9.77098322 C11.4283397,9.42485268 11.3845008,9.11168695 11.3262271,8.83547371 L10.0917876,8.77991205 C10.0067829,9.15342466 9.95118236,9.51843021 9.92471863,9.8507368 L11.4401014,9.77098322 Z M11.6301591,7.14390026 L11.774774,6.9421237 L11.5505006,6.64464284 L11.587924,6.57897906 L12.218242,6.91713425 L12.0808444,7.33132118 C12.1821551,7.37970502 12.275981,7.44111527 12.400815,7.52352731 L12.8076614,6.85785075 L11.7533892,6.3096778 L9.42324429,6.3096778 L7.53229044,7.44111527 C7.88754598,7.68649046 8.2141993,7.95180404 8.44649205,8.21897853 C8.95331259,7.48577728 9.84372357,7.01762376 10.725046,7.01762376 C11.0132066,7.01762376 11.3492158,7.04819596 11.6301591,7.14390026 L11.6301591,7.14390026 Z M6.96773085,7.07797063 L8.01184532,6.45562686 C7.80708554,6.35433981 7.580139,6.28973941 7.31122473,6.28628342 C6.95169223,6.28070067 6.34409566,6.44552474 6.05032152,6.49018674 C6.18157093,6.57951075 6.6480276,6.87592823 6.96773085,7.07797063 L6.96773085,7.07797063 Z M7.18184649,4.73401289 C6.81135426,4.65319593 6.60472331,4.69865547 6.39167691,4.90069787 C6.49592797,4.95014509 6.62664276,4.97726131 6.77099039,4.96689334 C6.97869058,4.9525377 7.10833613,4.82838796 7.18184649,4.73401289 L7.18184649,4.73401289 Z M13.064814,13.4957413 L12.9332973,13.4957413 C12.9332973,12.7734397 12.2674271,12.5764484 11.5697469,12.5764484 L9.39036511,12.5764484 C9.46040044,12.9324152 9.49327962,13.3492606 9.4387483,13.7432432 L9.33022027,13.7432432 C9.1281336,12.119992 8.20591268,11.3158101 6.91694187,10.4555348 L6.91694187,11.1940529 L6.80841384,11.1940529 C6.46598921,10.4318746 5.71270847,9.71648494 4.99952429,9.20898632 L5.00005891,9.20898632 C4.81000121,9.07420277 4.61379536,8.934634 4.41946069,8.79692615 L4.41946069,9.59366442 L4.31066536,9.59366442 C4.00860459,8.80357228 3.45954901,8.21392747 2.67713143,7.51209596 C1.83216322,6.75523448 1.49107513,6.30249998 1.29353274,5.7817091 C1.17351036,5.46641661 1.13982925,5.21147099 1.13528497,4.86507461 C1.12726566,4.24565513 1.44215733,3.68631668 1.83456901,3.47683061 L1.83456901,3.77696992 C1.63996703,4.0335106 1.53919101,4.35757599 1.53865639,4.68722412 C1.53812177,4.99108526 1.6108302,5.32924045 1.76373175,5.61794841 C2.23927698,6.51889803 3.84233752,7.6250802 4.86025556,8.30378317 C8.02574546,10.4153922 8.65766727,10.7838537 9.18346685,11.9043915 C9.24200783,12.0290729 9.3002815,12.197353 9.34919931,12.3916859 C9.80656742,12.3215027 11.4652285,12.0705448 11.771299,12.022161 C11.8295726,12.0131222 11.9522681,11.9977032 12.0156207,11.9937155 C12.3011082,11.8140041 12.5243124,11.5853772 12.7202509,11.2998594 L11.506929,11.206016 C11.4443783,11.3445214 11.3823623,11.4606958 11.3275637,11.5540074 L11.2289261,11.5540074 C11.2620726,11.4314528 11.2909421,11.3104932 11.3155347,11.1911287 L11.0057219,11.1685318 L11.0057219,11.102868 L11.3417311,11.061662 C11.405351,10.7200508 11.4360917,10.3973147 11.4425071,10.0953144 L9.91429352,10.0094464 C9.9060069,10.1652318 9.90467035,10.3119783 9.90974924,10.448357 L9.81191363,10.448357 C9.77930176,10.2965593 9.75363996,10.1460909 9.7341263,9.99907846 L9.39918636,9.9799376 L9.39918636,9.87838471 L9.71728575,9.86137061 C9.67291222,9.45914672 9.6699718,9.08350735 9.68627774,8.76130288 L8.79292634,8.72036271 C8.83489408,8.79852122 8.87846567,8.87800896 8.90947368,8.96387698 C9.10220449,9.50008689 9.0562271,10.128811 8.99260722,10.4177848 L8.8843465,10.4177848 C8.86857519,10.0830856 8.75550288,9.67315216 8.64831141,9.42299176 C8.40104928,8.84371492 7.84611286,8.33169693 6.91694187,7.73753275 L6.91694187,8.47791183 L6.80841384,8.47791183 C6.4991357,7.50491814 5.72954902,6.96392301 4.58519315,6.37932926 C3.64132009,5.89735179 3.34754594,5.31701157 3.40100803,4.41792286 L3.71990935,4.60560962 C3.80143902,5.44674406 4.45127063,5.93137998 5.1307737,5.92632892 C5.53067008,5.92367047 5.90570658,5.87103311 6.2681795,5.79872319 C6.79130598,5.69371431 7.27540513,5.60385861 7.67957848,5.74635168 L7.67957848,5.24975271 L7.36201371,5.24975271 C7.24867409,5.34731793 7.01851983,5.46083386 6.67957023,5.46588492 C6.30693951,5.47279689 5.60204196,5.25932314 5.60204196,4.47614298 C5.60204196,3.79611078 6.18130362,3.68738006 6.65257187,3.68738006 C6.90464559,3.68738006 7.32378832,3.67807548 7.46573015,3.67010012 C7.57131776,3.66398568 7.65044164,3.64776912 7.70149793,3.59752436 C7.75522732,3.54515284 7.77126595,3.4914521 7.78382954,3.42206648 C7.79853161,3.33752769 7.79853161,3.25112797 7.79853161,3.10544476 L7.79853161,2.60857995 L5.61433824,2.60857995 L5.61433824,3.46885525 L4.78781444,3.15622121 L4.78781444,2.95045697 L5.18370116,2.95045697 L5.18370116,2.60857995 L3.71028617,2.60857995 L3.71028617,1.89425371 L3.20747529,1.89425371 C2.93882832,1.89425371 2.62955018,2.08114294 2.60789803,2.44402173 C2.58704782,2.79174735 2.74422634,3.08444299 3.10402616,3.08444299 L3.16871528,3.08444299 L3.16871528,3.50075668 L3.10402616,3.50075668 C2.4734409,3.50075668 1.99816298,3.02967886 1.99816298,2.40441079 C1.99816298,1.75282403 2.55630712,1.25675676 3.23073129,1.25675676 L4.29623059,1.25675676 L4.29623059,1.971083 L8.43927467,1.971083 L8.43927467,3.02702041 C8.43927467,3.20460505 8.42965149,3.44359995 8.41200901,3.59486591 C8.39998004,3.70439416 8.36068541,3.90218304 8.15138135,4.06115851 C8.02521084,4.15686281 7.83488583,4.19541037 7.52560768,4.1967396 C7.42483165,4.19727129 7.13105751,4.19222023 6.7790097,4.17068676 C6.30693951,4.14117794 6.17328431,4.32221857 6.15403796,4.49023278 C6.14976099,4.52585604 6.15029561,4.56041593 6.15403796,4.59364659 C6.37510367,4.42323977 6.68785685,4.30334355 7.0433797,4.41420103 C7.66835144,4.60986315 7.84664748,4.62714309 8.17196426,4.37272917 L8.20511075,4.44557077 C8.17009308,4.49980321 8.10754245,4.57716418 8.01612229,4.6460181 L8.31818305,4.6460181 L8.31818305,6.27272531 L9.25804646,5.71258933 L11.8964002,5.71258933 C11.8964002,5.71258933 13.0118866,6.29213202 13.1952615,6.38783631 C13.3572516,6.47237511 13.4208715,6.57472554 13.446266,6.72492812 C13.4673835,6.85067293 13.4347716,7.0096484 13.3724883,7.11146714 C13.3337283,7.17500416 13.0308656,7.66894467 12.8704794,7.93292902 C13.3190262,8.41570403 13.6216216,9.09095102 13.6216216,9.84302729 C13.6216216,10.5246546 13.3682114,11.4038049 12.5448953,12.0569867 C12.9068336,12.175022 13.138859,12.37095 13.3206301,12.6296174 L13.064814,13.4957413 Z" id="Fill-6" fill="#FEFEFE"></path>
                                <path d="M7.36536836,16.8265403 L6.86428153,16.8265403 L6.86428153,15.4364569 L7.34229905,15.4364569 C7.99923784,15.4364569 8.25139074,15.6259783 8.25139074,16.1032914 C8.25139074,16.6196006 7.92251897,16.8265403 7.36536836,16.8265403 L7.36536836,16.8265403 Z M7.32539944,14.0679513 C7.72267439,14.0679513 7.99199515,14.1511432 7.99199515,14.5624228 C7.99199515,15.0007397 7.63093365,15.1213678 7.21917333,15.1213678 L6.86428153,15.1213678 L6.86428153,14.0679513 L7.32539944,14.0679513 Z M8.1242413,15.2404361 C8.47993783,15.1842817 8.82034425,14.915988 8.82034425,14.5106878 C8.82034425,14.1449038 8.65993209,13.7432432 7.54938633,13.7432432 L5.67567568,13.7432432 L5.67567568,13.7726204 C5.7325442,13.7892587 5.82187071,13.8339743 5.88061697,13.8903888 C6.00776641,14.010757 6.04988131,14.1909193 6.05605101,14.4298358 L6.05605101,17.1486486 L7.60893733,17.1486486 C8.46303823,17.1486486 9.08108108,16.8327797 9.08108108,16.1095307 C9.08108108,15.5214685 8.60896501,15.2711131 8.1242413,15.2404361 L8.1242413,15.2404361 Z" id="Fill-8" fill="#FEFEFE"></path>
                                <path d="M2.81755863,14.0679513 L3.32804397,14.0679513 C3.75265561,14.0679513 3.97447514,14.1968987 3.97447514,14.6656326 C3.97447514,15.0839315 3.68430716,15.3314272 3.21913709,15.3314272 L2.81755863,15.3314272 L2.81755863,14.0679513 Z M4.16399814,17.1486486 L5.10810811,17.1486486 L3.90187055,15.547206 C4.38556731,15.4127992 4.74758879,15.1382662 4.74758879,14.6393752 C4.74758879,14.0531328 4.41010265,13.7432432 3.52683032,13.7432432 L1.7027027,13.7432432 L1.7027027,13.7726204 C1.76979935,13.7975779 1.84515791,13.8425535 1.89422859,13.8929885 C2.02191252,14.0237557 2.05996733,14.2234161 2.05996733,14.4930096 L2.05996733,17.1486486 L2.81755863,17.1486486 L2.81755863,15.639237 L3.09395677,15.639237 L4.16399814,17.1486486 Z" id="Fill-10" fill="#FEFEFE"></path>
                                <path d="M12.0206392,14.2466642 C12.2205705,14.3624308 12.2813654,14.5137597 12.2826011,14.5150208 C12.2922393,14.5261183 12.3137399,14.5225872 12.3137399,14.5225872 L12.4766011,13.9576259 C12.4766011,13.9576259 12.1842418,13.7432432 11.4890543,13.7432432 C10.4365113,13.7432432 9.64864865,14.2844964 9.64864865,15.4681409 C9.64864865,16.8023576 10.587263,17.1486486 11.4144199,17.1486486 C12.1842418,17.1486486 12.4864865,16.8989559 12.4864865,16.8989559 L12.4864865,16.5113016 C12.4864865,16.5113016 12.2146393,16.7705785 11.6316505,16.7705785 C11.1497396,16.7705785 10.4431839,16.5461073 10.4281088,15.4492247 C10.4140221,14.4368342 10.8465064,14.1064327 11.4262823,14.1064327 C11.7490391,14.1064327 11.9106646,14.1836104 12.0206392,14.2466642" id="Fill-12" fill="#FEFEFE"></path>
                            </g>
                        </g>
                    </g>
                </g>
            </g>
        </g>
    </g>
</svg>